<svg height="1024" width="1024" xmlns="http://www.w3.org/2000/svg" data-name="Layer 1" viewBox="0 0 100 100"><path d="M22.95456,67.13855l8.77966-8.78a19.809,19.809,0,0,1-1.82991-8.36,20.12655,20.12655,0,0,1,20.09941-20.1,19.84156,19.84156,0,0,1,8.35975,1.83l5.43979-5.44a42.28769,42.28769,0,0,0-13.79954-2.41c-24.33928,0-43.51879,23.24-44.32871,24.23a2.98357,2.98357,0,0,0,0,3.78A82.18293,82.18293,0,0,0,22.95456,67.13855Zm4.24988-29.82a26.01123,26.01123,0,0,0,0,25.36,79.21535,79.21535,0,0,1-15.18964-12.68A79.215,79.215,0,0,1,27.20444,37.31854Z"></path><path d="M73.53736,30.71875,91.121,13.13458a3.00775,3.00775,0,0,0-4.25355-4.25366L8.88531,86.86536A3.00775,3.00775,0,0,0,13.13885,91.119L32.13179,72.12555a44.52739,44.52739,0,0,0,17.87193,4.003c24.33928,0,43.5188-23.25,44.32871-24.24a3.00923,3.00923,0,0,0,0-3.78A81.64025,81.64025,0,0,0,73.53736,30.71875ZM50.00372,70.09857a19.94255,19.94255,0,0,1-11.898-3.94708l6.27515-6.27533A11.36107,11.36107,0,0,0,59.8793,44.37726l6.282-6.28223A20.06124,20.06124,0,0,1,50.00372,70.09857Zm22.79929-7.42a26.01129,26.01129,0,0,0,0-25.36,79.58647,79.58647,0,0,1,15.18963,12.68A79.21554,79.21554,0,0,1,72.803,62.67853Z"></path><path d="M38.62372,49.99854a10.42122,10.42122,0,0,0,.09009,1.38l12.65991-12.66a10.3908,10.3908,0,0,0-1.37-.09A11.378,11.378,0,0,0,38.62372,49.99854Z"></path></svg>