<svg height="1024" width="1024" xmlns="http://www.w3.org/2000/svg" xmlns:xlink="http://www.w3.org/1999/xlink" version="1.1" x="0px" y="0px" viewBox="0 0 100 100"><path d="M50.2,45.2c-1.9,0-3.6,0.4-5.2,1.2c0.7,0.7,1.2,1.7,1.2,2.8c0,2.2-1.8,4-4,4c-1.1,0-2.1-0.4-2.8-1.2 c-0.7,1.6-1.2,3.3-1.2,5.2c0,6.6,5.4,12,12,12s12-5.4,12-12C62.2,50.6,56.8,45.2,50.2,45.2z"></path><path d="M51.7,19.3c-0.6,0-1.2,0-1.8,0c-0.4,0-0.8,0-1.2,0v10c0.4,0,0.8,0,1.2,0c0.6,0,1.2,0,1.8,0.1V19.3z"></path><path d="M16.4,42.2l-7.1-7.1c-0.7,0.7-1.5,1.4-2.2,2.1l7.1,7.1C14.9,43.6,15.6,42.9,16.4,42.2z"></path><path d="M28.7,23.1c-0.9,0.4-1.9,0.7-2.8,1.1l3.8,9.3c0.9-0.4,1.8-0.8,2.8-1.1L28.7,23.1z"></path><path d="M83.7,42.6c0.7,0.7,1.4,1.4,2.1,2.1l7.1-7.1c-0.7-0.7-1.4-1.4-2.1-2.1L83.7,42.6z"></path><path d="M71.5,23.3l-3.8,9.3c0.9,0.4,1.9,0.7,2.8,1.2l3.8-9.3C73.4,24.1,72.4,23.7,71.5,23.3z"></path><path d="M89.5,58l0.4-0.8l-0.4-0.8c-8.1-14-23.2-22.8-39.3-22.8S19,42.5,10.9,56.5l-0.4,0.8l0.4,0.8C19,72,34,80.8,50.2,80.8 S81.4,72,89.5,58z M13.9,57.2c6.1-10,16-17,27.3-19.5c-7.4,3.4-12.5,10.9-12.5,19.5s5.1,16.1,12.5,19.5C29.9,74.3,20,67.3,13.9,57.2 z M31.7,57.2c0-10.2,8.3-18.5,18.5-18.5S68.7,47,68.7,57.2s-8.3,18.5-18.5,18.5S31.7,67.5,31.7,57.2z M59.2,76.8 c7.4-3.4,12.5-10.9,12.5-19.5s-5.1-16.1-12.5-19.5c11.2,2.5,21.2,9.5,27.3,19.5C80.3,67.3,70.4,74.3,59.2,76.8z"></path></svg>